<svg width="250" height="250" viewBox="0 0 250 250" fill="none" xmlns="http://www.w3.org/2000/svg">
<path d="M186.275 97.4307C186.275 93.6967 185.961 89.9779 185.07 86.3425C183.47 79.7207 179.698 74.6624 174.053 70.9473C171.149 69.05 167.953 67.885 164.556 67.2703C161.948 66.7959 159.305 66.5796 156.659 66.5189C156.462 66.4999 156.246 66.4582 156.026 66.4392H95.2506C94.481 66.4999 93.7114 66.5379 92.9418 66.5758C89.1696 66.7921 85.4202 67.1868 81.8642 68.6098C75.1122 71.2775 70.233 75.9412 67.3897 82.6616C66.404 84.9347 65.9074 87.3443 65.5548 89.7957C65.2591 91.7728 65.0999 93.7688 65.043 95.7648C65.043 95.9242 65.0051 96.0798 65.0051 96.2391V158.082C65.043 158.795 65.0847 159.505 65.1226 160.218C65.3804 164.351 65.9112 168.441 67.6513 172.236C70.9306 179.412 76.4391 184.132 84.0024 186.405C86.114 187.058 88.328 187.354 90.5382 187.551C93.3437 187.828 96.1453 187.866 98.9507 187.866H154.71C157.357 187.866 160.003 187.688 162.649 187.354C166.815 186.819 170.724 185.593 174.261 183.263C178.507 180.455 181.707 176.74 183.758 172.096C184.706 169.959 185.24 167.69 185.635 165.394C186.207 161.975 186.324 158.514 186.324 155.057C186.306 135.845 186.324 116.636 186.306 97.4231L186.275 97.4307ZM153.812 117.607V146.504C153.812 148.618 153.516 150.693 152.568 152.61C151.109 155.592 148.739 157.471 145.559 158.381C143.8 158.894 141.984 159.171 140.149 159.25C135.349 159.49 131.183 156.226 130.334 151.483C129.602 147.57 131.478 143.26 135.584 141.245C137.203 140.455 138.962 139.981 140.717 139.624C142.632 139.211 144.546 138.835 146.442 138.398C147.845 138.084 148.751 137.233 149.028 135.788C149.107 135.473 149.126 135.135 149.126 134.82C149.126 125.629 149.126 116.438 149.126 107.27C149.126 106.955 149.065 106.637 148.99 106.341C148.792 105.57 148.239 105.115 147.45 105.153C146.639 105.191 145.851 105.331 145.062 105.491C141.21 106.242 137.362 107.012 133.529 107.802L114.832 111.577C114.752 111.596 114.654 111.638 114.574 111.638C113.171 112.033 112.678 112.666 112.618 114.127C112.599 114.344 112.618 114.564 112.618 114.78C112.599 127.944 112.618 141.108 112.599 154.268C112.599 156.404 112.36 158.499 111.514 160.472C110.112 163.713 107.625 165.751 104.27 166.718C102.492 167.231 100.676 167.531 98.818 167.587C93.9806 167.766 89.9506 164.544 89.1242 159.782C88.4114 155.672 90.288 151.244 94.9473 149.267C96.7632 148.515 98.6398 148.102 100.554 147.707C101.995 147.411 103.458 147.115 104.899 146.819C106.832 146.405 107.841 145.18 107.939 143.203V142.451C107.939 127.47 107.939 112.488 107.939 97.5066C107.939 96.8729 108.019 96.2429 108.156 95.6282C108.512 94.1862 109.539 93.3552 110.919 93.0174C112.204 92.6797 113.528 92.4444 114.828 92.1674C118.539 91.4161 122.232 90.6647 125.943 89.9323L137.415 87.5986C140.812 86.9269 144.186 86.2363 147.583 85.5646C148.69 85.3483 149.816 85.1092 150.938 85.0295C152.496 84.8929 153.584 85.8796 153.744 87.462C153.782 87.8376 153.804 88.2133 153.804 88.589C153.804 98.2541 153.804 107.919 153.804 117.584L153.812 117.607Z" fill="#D1B7FF"/>
</svg>
