<svg width="92" height="92" viewBox="0 0 92 92" fill="none" xmlns="http://www.w3.org/2000/svg">
<path d="M62.4748 30.774C67.87 38.7625 70.5344 47.7735 69.5384 58.1471C69.5342 58.191 69.5115 58.2313 69.4757 58.2577C65.39 61.279 61.4316 63.1126 57.5287 64.3286C57.4983 64.3379 57.4657 64.3373 57.4357 64.3271C57.4056 64.3169 57.3794 64.2974 57.3609 64.2714C56.4592 63.008 55.6399 61.6759 54.9221 60.2771C54.8809 60.1948 54.9186 60.0955 55.0033 60.0631C56.3045 59.5693 57.5418 58.9776 58.7319 58.277C58.8256 58.2217 58.8316 58.0863 58.745 58.0214C58.4924 57.8326 58.2422 57.6341 58.0028 57.4357C57.958 57.399 57.8977 57.3918 57.8469 57.4164C50.1205 61.0096 41.6566 61.0096 33.8389 57.4164C33.7881 57.3936 33.7278 57.4014 33.6842 57.4375C33.4454 57.6359 33.1946 57.8326 32.9444 58.0214C32.8578 58.0863 32.8649 58.2217 32.9593 58.277C34.1494 58.9643 35.3867 59.5693 36.686 60.0655C36.7702 60.0979 36.8102 60.1948 36.7684 60.2771C36.0662 61.6777 35.2469 63.0098 34.3285 64.2732C34.2885 64.3244 34.2228 64.3478 34.1607 64.3286C30.2763 63.1126 26.3179 61.279 22.2322 58.2577C22.1982 58.2313 22.1737 58.1892 22.1701 58.1453C21.3377 49.1723 23.0342 40.0868 29.2271 30.7722C29.2421 30.7475 29.2648 30.7283 29.291 30.7168C32.3383 29.3084 35.6028 28.2723 39.0149 27.6805C39.077 27.6709 39.1391 27.6998 39.1713 27.7551C39.5929 28.5068 40.0748 29.4708 40.4009 30.2586C43.9974 29.7053 47.6502 29.7053 51.322 30.2586C51.648 29.4876 52.1132 28.5068 52.533 27.7551C52.5479 27.7276 52.5711 27.7056 52.5992 27.6923C52.6273 27.6789 52.6589 27.6748 52.6894 27.6805C56.1033 28.2741 59.3679 29.3102 62.4127 30.7168C62.4395 30.7283 62.4616 30.7475 62.4748 30.774ZM42.2293 47.8348C42.2669 45.1822 40.3465 42.9872 37.9359 42.9872C35.5449 42.9872 33.643 45.1629 33.643 47.8348C33.643 50.5061 35.5825 52.6818 37.9359 52.6818C40.3274 52.6818 42.2293 50.5061 42.2293 47.8348ZM58.1025 47.8348C58.1401 45.1822 56.2197 42.9872 53.8097 42.9872C51.4181 42.9872 49.5162 45.1629 49.5162 47.8348C49.5162 50.5061 51.4557 52.6818 53.8097 52.6818C56.2197 52.6818 58.1025 50.5061 58.1025 47.8348Z" fill="white"/>
</svg>
