<svg width="250" height="250" viewBox="0 0 250 250" fill="none" xmlns="http://www.w3.org/2000/svg">
<path d="M170.581 84.0253C185.312 105.837 192.587 130.441 189.867 158.765C189.856 158.885 189.794 158.995 189.696 159.067C178.541 167.316 167.733 172.323 157.076 175.643C156.993 175.668 156.904 175.667 156.822 175.639C156.74 175.611 156.669 175.558 156.618 175.487C154.156 172.037 151.919 168.4 149.959 164.581C149.847 164.356 149.949 164.085 150.181 163.996C153.734 162.648 157.112 161.032 160.361 159.119C160.617 158.968 160.634 158.599 160.397 158.422C159.708 157.906 159.024 157.364 158.371 156.822C158.248 156.722 158.084 156.702 157.945 156.77C136.849 166.581 113.739 166.581 92.3935 156.77C92.2549 156.707 92.0903 156.729 91.9712 156.827C91.3191 157.369 90.6343 157.906 89.9511 158.422C89.7147 158.599 89.7343 158.968 89.9919 159.119C93.2413 160.996 96.6196 162.648 100.167 164.003C100.397 164.091 100.507 164.356 100.392 164.581C98.475 168.405 96.2381 172.042 93.7305 175.492C93.6212 175.631 93.4419 175.695 93.2723 175.643C82.6664 172.323 71.8582 167.316 60.7028 159.067C60.6099 158.995 60.543 158.88 60.5332 158.76C58.2604 134.26 62.8925 109.453 79.8017 84.0203C79.8424 83.953 79.9044 83.9005 79.9761 83.8693C88.2962 80.0238 97.2098 77.1946 106.526 75.5789C106.696 75.5527 106.865 75.6315 106.953 75.7825C108.104 77.835 109.42 80.4671 110.31 82.6181C120.13 81.1075 130.104 81.1075 140.129 82.6181C141.02 80.5131 142.29 77.835 143.436 75.7825C143.477 75.7076 143.54 75.6476 143.617 75.611C143.693 75.5744 143.78 75.5632 143.863 75.5789C153.184 77.1996 162.098 80.0287 170.411 83.8693C170.485 83.9005 170.545 83.953 170.581 84.0253ZM115.303 130.608C115.405 123.365 110.162 117.372 103.58 117.372C97.0517 117.372 91.8587 123.313 91.8587 130.608C91.8587 137.902 97.1544 143.842 103.58 143.842C110.11 143.842 115.303 137.902 115.303 130.608ZM158.643 130.608C158.746 123.365 153.502 117.372 146.922 117.372C140.392 117.372 135.199 123.313 135.199 130.608C135.199 137.902 140.495 143.842 146.922 143.842C153.502 143.842 158.643 137.902 158.643 130.608Z" fill="#D1B7FF"/>
</svg>
