<svg width="250" height="250" viewBox="0 0 250 250" fill="none" xmlns="http://www.w3.org/2000/svg">
<path fill-rule="evenodd" clip-rule="evenodd" d="M125.038 62.7675C90.6424 62.7675 62.5005 90.9343 62.5005 125.361C62.5005 159.787 90.6424 187.954 125.038 187.954C159.434 187.954 187.575 159.787 187.575 125.361C187.575 90.9343 159.746 62.7675 125.038 62.7675ZM153.805 153.214C152.554 155.092 150.366 155.718 148.49 154.466C133.793 145.39 115.345 143.513 93.4565 148.52C91.2677 149.146 89.3916 147.581 88.7662 145.703C88.1409 143.513 89.7043 141.635 91.5804 141.009C115.345 135.688 135.982 137.879 152.242 147.894C154.431 148.833 154.743 151.337 153.805 153.214ZM161.31 136.001C159.746 138.192 156.932 139.131 154.743 137.566C137.858 127.238 112.218 124.109 92.5185 130.368C90.017 130.994 87.2028 129.742 86.5774 127.238C85.952 124.735 87.2028 121.918 89.7043 121.292C112.53 114.407 140.672 117.849 160.059 129.742C161.935 130.681 162.873 133.811 161.31 136.001ZM161.935 118.475C141.923 106.583 108.466 105.331 89.3916 111.277C86.2647 112.216 83.1379 110.338 82.1998 107.522C81.2617 104.392 83.1379 101.262 85.952 100.323C108.153 93.751 144.737 95.0029 167.876 108.773C170.69 110.338 171.628 114.094 170.065 116.91C168.502 119.101 164.749 120.04 161.935 118.475Z" fill="#D1B7FF"/>
</svg>
