<svg width="250" height="250" viewBox="0 0 250 250" fill="none" xmlns="http://www.w3.org/2000/svg">
<path d="M194.533 90.6142C192.901 84.4779 188.072 79.637 181.929 77.9779C170.821 75.0006 126.253 75.0006 126.253 75.0006C126.253 75.0006 81.7071 75.0006 70.5765 77.9779C64.4557 79.6142 59.6271 84.4552 57.9723 90.6142C55.0026 101.751 55.0026 125.001 55.0026 125.001C55.0026 125.001 55.0026 148.251 57.9723 159.387C59.6045 165.523 64.433 170.364 70.5765 172.023C81.7071 175.001 126.253 175.001 126.253 175.001C126.253 175.001 170.821 175.001 181.929 172.023C188.049 170.387 192.878 165.546 194.533 159.387C197.503 148.251 197.503 125.001 197.503 125.001C197.503 125.001 197.503 101.751 194.533 90.6142Z" fill="#D1B7FF"/>
<path d="M112.016 146.432L149.035 125.001L112.016 103.569V146.432Z" fill="white"/>
</svg>
